<svg xmlns="http://www.w3.org/2000/svg" enable-background="new 0 0 50 50" viewBox="0 0 50 50"><path fill="#49494A" d="M21.4,12.2h7.5c0-2.2-0.2-5.6-0.2-10.7c-3,0.1-3.5-0.2-6.8,0.1C22.1,6.6,21.7,7.1,21.4,12.2z"/><path fill="#ED9B34" d="M33.7,39.8c-2.6,0.1-6.9-0.8-17-0.3l-0.1,3c2.8,0.6,5.7,0.2,8.5,0.4c5.9,0.4,3.1,0.1,9.3,0.1
				C34.1,41.6,34.2,41.3,33.7,39.8z"/><path fill="#ED9B34" d="M16.6 48.5c1.4-2.6 1.7-5.3 2.7-8 2.3-6.1 2.2-9.1 4.9-14.8l-3.4 0c-2.8 5.4-2.3 5.5-3.2 8.1-.4 1.2-1.2 2.7-2.4 6.5-.8 2.7-1.6 5.4-2.2 8.1L16.6 48.5zM33.5 48.5c-1.4-2.6-1.7-5.3-2.7-8-2.3-6.1-2.2-9.1-4.9-14.8l3.4 0c2.8 5.4 2.3 5.5 3.2 8.1.5 1.6 2.5 5.5 4.5 14.6L33.5 48.5z"/><path fill="#D6D6D6" d="M7.5,6C18.5,5.1,30.2,5,42.6,6c1.4,0.1,2.6,1.2,2.7,2.6c0.3,5.3,0.5,10.7,0.4,16.1
			c-0.1,2.3,0.3,5.4-0.4,7.6c-0.8,2.5-3.2,1.9-10.3,1.8C4.1,33.6,5.7,34,5.1,32.8c-0.8-1.5-0.8-10.9-0.8-11.9
			c0-4.2,0.3-8.3,0.7-12.3C5,7.2,6.1,6.1,7.5,6z"/><path fill="#BED150" d="M5,27.8c6.8-5.1,7.9-5.8,9.1-7.2c1.4-1.5,2.3-3.4,3.7-4.9c0.1-0.1,0.2-0.2,0.3-0.2c0.1,0,0.2,0.1,0.3,0.1
			c2.6,1.9,2.8,5.9,5.4,7.8c3.6-5.4,3.7-6,4.5-5.2c1,0.9,1.8,1.9,2.8,2.8c2.3,2.3,5,4.3,7.7,6.3L5,27.8z"/><path fill="#CEEBF6" d="M35.1,34.2C4.1,33.7,5.7,34,5.1,32.8c-0.7-1.3-0.6-3.1-0.7-6.2c4.9-0.5,9.9,0.7,14.9,0.6
			c7.5-0.2-2.6-0.7,26.5,0.5C45.9,35.5,44.4,34.4,35.1,34.2z"/><path fill="#FCE598" d="M41.1 10.8c.8.9 1 5.7-3 6.6-1.4.3-3.1-.2-3.7-1.3-.7-1.2-.1-3.8 1-4.7C37.2 9.6 40.4 9.9 41.1 10.8zM3 35.2c6.8-.1 17.9.9 44.2.3l0-3.3C40.7 31.7 3 31.7 2.9 31.7 3 33.3 2.6 33.5 3 35.2z"/><path fill="#353535" d="M38.2 17.8c4.2-.9 4.5-6 3.3-7.4-.9-1.1-4.4-1.3-6.4.5-1.3 1.1-1.9 3.9-1.1 5.3C34.7 17.6 36.6 18.1 38.2 17.8zM38.8 10.6c1 0 1.7.3 1.9.5.7.8.7 5-2.7 5.8-1.4.3-2.8-.3-3.2-1.1C34.2 14.6 34.5 10.6 38.8 10.6zM22.4 11.2c1.3.5 1.7 1.5 2.2 1.5 1.1 0-.7-1.2 3.2-2.7.6-.2 1.2-.4 1-1-.2-.5-.8-.2-1.3 0-1.1.4-2.6 1-3.1 2.2-1.9-1.7-3.6-1.4-4.5-.5-.2.2-.2.5 0 .7C20.5 12.1 20.7 10.6 22.4 11.2z"/><path fill="#353535" d="M47.2,31.7c-0.3,0-0.7-0.1-1.2-0.1C46.6,29,46.1,13,45.9,8.6c-0.1-1.6-1.5-3-3.2-3.1
				c-4.5-0.4-9-0.6-13.4-0.7c0-1,0-2.1,0-3.3c0-0.1-0.1-0.3-0.2-0.4C29,1.1,28.9,1,28.8,1c-1.3,0-2.1,0-2.8,0c-1.2,0-2.3,0-3.9,0.1
				c-0.3,0-0.5,0.2-0.5,0.5c0,1.3,0,2.3,0,3.2c-4.8,0.1-9.5,0.3-14,0.6c-1.7,0.1-3,1.4-3.1,3C4,13.3,3.8,17.2,3.7,20.9
				c0,2.6,0.2,9.1,0.4,10.3c-2.3,0.1-1.6-0.2-1.7,2c0,0.6-0.1,1.1,0.1,2.1c0.1,0.5-0.7,0.3,13.8,0.7c-1.4,3.7-2.8,8.5-3.7,12.3
				c0,0.1,0,0.3,0.1,0.4s0.2,0.2,0.4,0.2l3.5,0h0c0.2,0,0.3-0.1,0.4-0.3c1-1.7,1.4-3.5,1.9-5.4c1.6,0.1,2.3,0,4.1,0
				c3.4,0,2.8,0.4,8.2,0.2c0.5,1.8,1,3.5,1.9,5.2c0.1,0.2,0.3,0.3,0.4,0.3h0l3.5,0c0.3,0,0.6-0.3,0.5-0.6c-1.4-6.1-2.7-9.8-3.6-12.2
				c4.2,0,8.6-0.1,13.2-0.2c0.3,0,0.5-0.2,0.5-0.5l0-3.3C47.7,32,47.5,31.8,47.2,31.7z M5.2,31.2C5,29.8,4.9,28.4,4.9,27
				c2.6-0.2,5.2,0,7.7,0.3c8.3,0.7,9,0.1,11.8,0.1c2,0,6.5,0.2,20.9,0.8c0,1.1,0,2.4-0.3,3.5C36.5,31.2,13.3,31.2,5.2,31.2z
				 M12.7,26.3c-1.5-0.1-3-0.3-4.4-0.3c2.7-2,5-3.6,6.2-5.1c1.4-1.6,2.2-3.4,3.7-4.9c2.3,1.7,2.8,5.9,5.4,7.8
				c0.2,0.2,0.5,0.1,0.7-0.1c2.3-3.3,3.2-4.9,3.6-5.2c1.5,1.2,2.2,3,9.3,8.3C13.9,25.8,24.1,27.3,12.7,26.3z M22.5,2.1
				C23.9,2,24.9,2,25.9,2c0.7,0,1.4,0,2.4,0c0,1,0,1.9,0,2.8c-1.9,0-3.9,0-5.8,0C22.5,4,22.5,3.2,22.5,2.1z M4.7,20.9
				c0-3.6,0.2-7.5,0.7-12.3c0.1-1.1,1-2,2.2-2.1c11.5-0.9,23.2-0.9,35,0c1.2,0.1,2.2,1,2.2,2.2c0.7,10.1,0.3,14.4,0.4,18.5
				c-2.3-0.1-4.4-0.2-6.2-0.3c-13.8-10.2-9.4-13-15.3-4.2c-2.1-1.9-2.4-5.6-5-7.5c-0.1-0.1-0.3-0.2-0.6-0.2
				c-1.5,0.6-2.8,3.5-4.4,5.2c-1.2,1.3-2.5,2.2-7.1,5.7c-0.6,0-1.2,0-1.8,0.1C4.7,24,4.7,22,4.7,20.9z M17.9,43.5
				c-0.4,1.6-0.8,3.1-1.6,4.5l-2.6,0c0.9-3.8,2.2-8.3,3.6-11.9c0.9,0,1.9,0,2.9,0.1C19.1,40.2,18.9,39.6,17.9,43.5z M21.9,42.3
				c-0.9,0-1.7,0-2.6,0c0.3-1,0.4-1.3,0.8-2.4c3.8-0.1,6.6,0,10.1,0.3c0.4,1,0.5,1.3,0.8,2.4C25.3,42.7,27.3,42.3,21.9,42.3z
				 M20.4,38.9c0.3-1,0.6-1.9,0.9-2.8c2.3,0,4.8,0.1,7.6,0.1c0.3,0.9,0.6,1.9,0.9,2.9C26.1,38.9,23.5,38.8,20.4,38.9z M36.4,48
				l-2.6,0c-0.8-1.5-1.2-3-1.6-4.5c-1-3.8-1.2-3.2-2.3-7.3c2.2,0,2.3,0,3,0C33.7,38.4,35,42,36.4,48z M46.7,35
				c-22.4,0.4-31.7-0.2-43.3-0.4c-0.2-1.1,0-1.4,0-2.5c6.4,0,36.3,0,43.3,0.5L46.7,35z"/></svg>