<svg xmlns="http://www.w3.org/2000/svg" enable-background="new 0 0 64 64" viewBox="0 0 64 64"><path d="M62.27,20.67V63.5c0,0.28-0.23,0.5-0.5,0.5H0.85c-0.27,0-0.5-0.22-0.5-0.5V20.67c0-0.27,0.23-0.5,0.5-0.5h41.63
			c0.28,0,0.5,0.23,0.5,0.5c0,0.1-0.03,0.19-0.07,0.27l-0.02,0.02c-0.09,0.13-0.24,0.21-0.41,0.21H1.35v41.84h59.92V21.17h-9.96
			c-0.28,0-0.5-0.22-0.5-0.5c0-0.1,0.03-0.19,0.08-0.27l0.01-0.02c0.09-0.13,0.24-0.21,0.41-0.21h10.46
			C62.04,20.17,62.27,20.4,62.27,20.67z"/><path d="M57.09 26.71v31.41c0 .27-.23.5-.5.5H16.18c-.27 0-.5-.23-.5-.5V26.71c0-.28.23-.5.5-.5h21.69c.28 0 .5.22.5.5 0 .1-.03.19-.07.27l-.08.1c-.09.08-.21.13-.35.13h-21.2v30.41h39.41V27.2h-9.39c-.28 0-.5-.22-.5-.5 0-.1.03-.19.07-.26l.08-.11c.09-.08.21-.13.35-.13h9.88C56.86 26.21 57.09 26.43 57.09 26.71zM8.68 38.48c-2.17 0-3.93 1.76-3.93 3.93 0 2.18 1.76 3.94 3.93 3.94s3.94-1.76 3.94-3.94C12.61 40.24 10.84 38.48 8.68 38.48zM8.68 45.35c-1.62 0-2.93-1.32-2.93-2.94s1.31-2.93 2.93-2.93 2.94 1.31 2.94 2.93S10.3 45.35 8.68 45.35zM10.65 26.71c0 .28-.22.5-.5.5H6.57c-.28 0-.5-.22-.5-.5s.22-.5.5-.5h3.59C10.43 26.21 10.65 26.43 10.65 26.71zM10.97 32.84c0 .27-.22.5-.5.5h-3.6c-.27 0-.5-.23-.5-.5 0-.28.23-.5.5-.5h3.6C10.75 32.34 10.97 32.56 10.97 32.84zM10.97 51.98c0 .28-.22.5-.5.5h-3.6c-.27 0-.5-.22-.5-.5s.23-.5.5-.5h3.6C10.75 51.48 10.97 51.7 10.97 51.98zM10.97 58.11c0 .27-.22.5-.5.5h-3.6c-.27 0-.5-.23-.5-.5 0-.28.23-.5.5-.5h3.6C10.75 57.62 10.97 57.84 10.97 58.11z"/><path d="M51.31,21.17c-0.28,0-0.5-0.22-0.5-0.5c0-0.1,0.03-0.19,0.08-0.27l-4.53,5.94l-0.08,0.11l-5.98,7.84l-0.61,0.8
				l-0.56,0.73l-4.79-3.66l0.56-0.73l0.61-0.8l2.71-3.56l0.08-0.1l4.58-6.02c-0.09,0.13-0.24,0.21-0.41,0.21h-1l-3.85,5.04
				l-0.76,0.99l-3.62,4.74c-0.01,0.01-0.01,0.02-0.01,0.03c-0.03,0.04-0.06,0.09-0.07,0.14v0.01c-0.02,0.06-0.03,0.12-0.02,0.19
				c0.02,0.14,0.09,0.26,0.2,0.34l0.58,0.44l4.42,3.37l0.58,0.44c0.09,0.07,0.2,0.11,0.3,0.11c0.07,0,0.13-0.01,0.19-0.04l0.07-0.04
				c0.08-0.05,0.14-0.11,0.18-0.18l1.11-1.46l6.17-8.08l0.76-0.99l3.85-5.04H51.31z M51.31,21.17c-0.28,0-0.5-0.22-0.5-0.5
				c0-0.1,0.03-0.19,0.08-0.27l-4.53,5.94l-0.08,0.11l-5.98,7.84l-0.61,0.8l-0.56,0.73l-4.79-3.66l0.56-0.73l0.61-0.8l2.71-3.56
				l0.08-0.1l4.58-6.02c-0.09,0.13-0.24,0.21-0.41,0.21h-1l-3.85,5.04l-0.76,0.99l-3.62,4.74c-0.01,0.01-0.01,0.02-0.01,0.03
				c-0.03,0.04-0.06,0.09-0.07,0.14v0.01c-0.02,0.06-0.03,0.12-0.02,0.19c0.02,0.14,0.09,0.26,0.2,0.34l0.58,0.44l4.42,3.37
				l0.58,0.44c0.09,0.07,0.2,0.11,0.3,0.11c0.07,0,0.13-0.01,0.19-0.04l0.07-0.04c0.08-0.05,0.14-0.11,0.18-0.18l1.11-1.46
				l6.17-8.08l0.76-0.99l3.85-5.04H51.31z M46.71,27.2c-0.28,0-0.5-0.22-0.5-0.5c0-0.1,0.03-0.19,0.07-0.26l-5.98,7.84l-0.61,0.8
				l-0.56,0.73l-4.79-3.66l0.56-0.73l0.61-0.8l2.71-3.56c-0.09,0.08-0.21,0.13-0.35,0.13h-1l-3.62,4.74
				c-0.01,0.01-0.01,0.02-0.01,0.03c-0.03,0.04-0.06,0.09-0.07,0.14v0.01c-0.02,0.06-0.03,0.12-0.02,0.19
				c0.02,0.14,0.09,0.26,0.2,0.34l0.58,0.44l4.42,3.37l0.58,0.44c0.09,0.07,0.2,0.11,0.3,0.11c0.07,0,0.13-0.01,0.19-0.04l0.07-0.04
				c0.08-0.05,0.14-0.11,0.18-0.18l1.11-1.46l6.17-8.08H46.71z M46.71,27.2c-0.28,0-0.5-0.22-0.5-0.5c0-0.1,0.03-0.19,0.07-0.26
				l-5.98,7.84l-0.61,0.8l-0.56,0.73l-4.79-3.66l0.56-0.73l0.61-0.8l2.71-3.56c-0.09,0.08-0.21,0.13-0.35,0.13h-1l-3.62,4.74
				c-0.01,0.01-0.01,0.02-0.01,0.03c-0.03,0.04-0.06,0.09-0.07,0.14v0.01c-0.02,0.06-0.03,0.12-0.02,0.19
				c0.02,0.14,0.09,0.26,0.2,0.34l0.58,0.44l4.42,3.37l0.58,0.44c0.09,0.07,0.2,0.11,0.3,0.11c0.07,0,0.13-0.01,0.19-0.04l0.07-0.04
				c0.08-0.05,0.14-0.11,0.18-0.18l1.11-1.46l6.17-8.08H46.71z M62.24,1.24l-0.67-0.51c-0.76-0.58-1.7-0.83-2.65-0.71
				c-0.94,0.13-1.79,0.63-2.38,1.38l-1.69,2.23l-1.17,1.53l-11.44,15l-0.76,0.99l-3.85,5.04l-0.76,0.99l-3.62,4.74
				c-0.01,0.01-0.01,0.02-0.01,0.03c-0.03,0.04-0.06,0.09-0.07,0.14v0.01c-0.02,0.06-0.03,0.12-0.02,0.19
				c0.02,0.14,0.09,0.26,0.2,0.34l0.58,0.44l4.42,3.37l0.58,0.44c0.09,0.07,0.2,0.11,0.3,0.11c0.07,0,0.13-0.01,0.19-0.04l0.07-0.04
				c0.08-0.05,0.14-0.11,0.18-0.18l1.11-1.46l6.17-8.08l0.76-0.99l3.85-5.04l0.76-0.99l7.73-10.13l0.01-0.01c0,0,0-0.01,0.01-0.01
				l1.16-1.52V8.49l1.69-2.22C64.12,4.7,63.81,2.45,62.24,1.24z M62.12,5.67L60.72,7.5l-0.61,0.79l-0.57,0.75l-0.6,0.79L50.9,20.38
				l-0.01,0.02l-4.53,5.94l-0.08,0.11l-5.98,7.84l-0.61,0.8l-0.56,0.73l-4.79-3.66l0.56-0.73l0.61-0.8l2.71-3.56l0.08-0.1l4.58-6.02
				l0.02-0.02L54.17,6.16l0.6-0.79l0.57-0.75l0.61-0.79l1.39-1.83c0.42-0.55,1.02-0.9,1.72-0.99c0.68-0.1,1.36,0.09,1.92,0.51
				l0.66,0.5C62.77,2.9,62.99,4.53,62.12,5.67z M46.71,27.2c-0.28,0-0.5-0.22-0.5-0.5c0-0.1,0.03-0.19,0.07-0.26l-5.98,7.84
				l-0.61,0.8l-0.56,0.73l-4.79-3.66l0.56-0.73l0.61-0.8l2.71-3.56c-0.09,0.08-0.21,0.13-0.35,0.13h-1l-3.62,4.74
				c-0.01,0.01-0.01,0.02-0.01,0.03c-0.03,0.04-0.06,0.09-0.07,0.14v0.01c-0.02,0.06-0.03,0.12-0.02,0.19
				c0.02,0.14,0.09,0.26,0.2,0.34l0.58,0.44l4.42,3.37l0.58,0.44c0.09,0.07,0.2,0.11,0.3,0.11c0.07,0,0.13-0.01,0.19-0.04l0.07-0.04
				c0.08-0.05,0.14-0.11,0.18-0.18l1.11-1.46l6.17-8.08H46.71z M46.71,27.2c-0.28,0-0.5-0.22-0.5-0.5c0-0.1,0.03-0.19,0.07-0.26
				l-5.98,7.84l-0.61,0.8l-0.56,0.73l-4.79-3.66l0.56-0.73l0.61-0.8l2.71-3.56c-0.09,0.08-0.21,0.13-0.35,0.13h-1l-3.62,4.74
				c-0.01,0.01-0.01,0.02-0.01,0.03c-0.03,0.04-0.06,0.09-0.07,0.14v0.01c-0.02,0.06-0.03,0.12-0.02,0.19
				c0.02,0.14,0.09,0.26,0.2,0.34l0.58,0.44l4.42,3.37l0.58,0.44c0.09,0.07,0.2,0.11,0.3,0.11c0.07,0,0.13-0.01,0.19-0.04l0.07-0.04
				c0.08-0.05,0.14-0.11,0.18-0.18l1.11-1.46l6.17-8.08H46.71z M51.31,21.17c-0.28,0-0.5-0.22-0.5-0.5c0-0.1,0.03-0.19,0.08-0.27
				l-4.53,5.94l-0.08,0.11l-5.98,7.84l-0.61,0.8l-0.56,0.73l-4.79-3.66l0.56-0.73l0.61-0.8l2.71-3.56l0.08-0.1l4.58-6.02
				c-0.09,0.13-0.24,0.21-0.41,0.21h-1l-3.85,5.04l-0.76,0.99l-3.62,4.74c-0.01,0.01-0.01,0.02-0.01,0.03
				c-0.03,0.04-0.06,0.09-0.07,0.14v0.01c-0.02,0.06-0.03,0.12-0.02,0.19c0.02,0.14,0.09,0.26,0.2,0.34l0.58,0.44l4.42,3.37
				l0.58,0.44c0.09,0.07,0.2,0.11,0.3,0.11c0.07,0,0.13-0.01,0.19-0.04l0.07-0.04c0.08-0.05,0.14-0.11,0.18-0.18l1.11-1.46
				l6.17-8.08l0.76-0.99l3.85-5.04H51.31z"/><path fill="#e96e68" d="M62.12,5.67L60.72,7.5l-4.78-3.65l1.39-1.83c0.42-0.55,1.02-0.9,1.72-0.99c0.68-0.1,1.36,0.09,1.92,0.51
				l0.66,0.5C62.77,2.9,62.99,4.53,62.12,5.67z"/><polygon fill="#687b83" points="60.12 8.28 59.55 9.03 54.77 5.38 55.34 4.63"/><polygon fill="#687b83" points="39.7 35.09 39.14 35.81 34.35 32.15 34.9 31.43"/><polygon fill="#eb8035" points="58.95 9.81 50.9 20.38 50.89 20.4 46.36 26.34 46.28 26.45 40.3 34.29 35.51 30.63 38.22 27.07 38.3 26.97 42.89 20.96 42.91 20.94 54.17 6.16"/><path fill="#304b58" d="M51.56,21.17l-3.85,5.04h8.88c0.27,0,0.5,0.22,0.5,0.5v31.41c0,0.27-0.23,0.5-0.5,0.5H16.18
				c-0.27,0-0.5-0.23-0.5-0.5V26.71c0-0.28,0.23-0.5,0.5-0.5h21.45l3.85-5.04H1.35v41.84h59.92V21.17H51.56z M10.97,32.84
				c0,0.27-0.22,0.5-0.5,0.5h-3.6c-0.27,0-0.5-0.23-0.5-0.5c0-0.28,0.23-0.5,0.5-0.5h3.6C10.75,32.34,10.97,32.56,10.97,32.84z
				 M6.57,26.21h3.59c0.28,0,0.5,0.22,0.5,0.5s-0.22,0.5-0.5,0.5H6.57c-0.28,0-0.5-0.22-0.5-0.5S6.29,26.21,6.57,26.21z
				 M10.47,58.61h-3.6c-0.27,0-0.5-0.23-0.5-0.5c0-0.28,0.23-0.5,0.5-0.5h3.6c0.28,0,0.5,0.22,0.5,0.5
				C10.97,58.38,10.75,58.61,10.47,58.61z M10.47,52.48h-3.6c-0.27,0-0.5-0.22-0.5-0.5s0.23-0.5,0.5-0.5h3.6
				c0.28,0,0.5,0.22,0.5,0.5S10.75,52.48,10.47,52.48z M8.68,46.34c-2.17,0-3.93-1.76-3.93-3.94c0-2.17,1.76-3.93,3.93-3.93
				s3.94,1.76,3.94,3.93C12.61,44.58,10.84,46.34,8.68,46.34z"/><path fill="#7f8f99" d="M11.62,42.4c0,1.62-1.32,2.94-2.94,2.94s-2.93-1.32-2.93-2.94s1.31-2.93,2.93-2.93S11.62,40.78,11.62,42.4z
				"/><path d="M61.22 8.49L61.22 8.49c-.11.13-.25.2-.4.2-.11 0-.21-.03-.3-.1l-.41-.31-4.78-3.65-.4-.3c-.22-.17-.26-.48-.09-.7s.48-.27.7-.1l.4.31 4.78 3.65.4.3C61.34 7.96 61.38 8.27 61.22 8.49zM39.67 36.75c-.04.07-.1.13-.18.18l-.07.04-4.28 2.6c-.03.02-.06.04-.1.06l-3.75 2.28c-.08.04-.17.07-.26.07-.11 0-.22-.04-.31-.11-.16-.12-.23-.33-.17-.53l1.2-4.26c.01-.02.01-.03.02-.04l1.39-4.91v-.01c.01-.05.04-.1.07-.14.11-.18.34-.26.55-.2.26.07.42.35.34.61l-.2.71-1.11 3.93-.29 1.02-.67 2.35 2.09-1.26.91-.56 3.49-2.11.62-.38c.24-.14.55-.07.69.17C39.75 36.4 39.75 36.6 39.67 36.75zM40.78 35.29c-.1.13-.24.2-.39.2-.11 0-.22-.03-.31-.1l-.39-.3-4.79-3.66-.4-.3c-.22-.17-.26-.48-.09-.7.16-.22.48-.26.7-.1l.4.3 4.79 3.66.39.3C40.91 34.76 40.95 35.07 40.78 35.29zM60.06 10.02C60.05 10.02 60.05 10.03 60.06 10.02l-.02.02c-.1.12-.24.18-.39.18-.11 0-.21-.03-.3-.1l-.4-.31-4.78-3.65-.4-.3c-.22-.16-.27-.48-.1-.7s.48-.26.7-.09l.4.3 4.78 3.65.4.31C60.17 9.49 60.21 9.8 60.06 10.02z"/><path fill="#687b83" d="M56.09,27.2v30.41H16.68V27.2h20.19l-3.62,4.74c-0.01,0.01-0.01,0.02-0.01,0.03
				c-0.03,0.04-0.06,0.09-0.07,0.14v0.01l-1.39,4.91c-0.01,0.01-0.01,0.02-0.02,0.04l-1.2,4.26c-0.06,0.2,0.01,0.41,0.17,0.53
				c0.09,0.07,0.2,0.11,0.31,0.11c0.09,0,0.18-0.03,0.26-0.07l3.75-2.28c0.04-0.02,0.07-0.04,0.1-0.06l4.28-2.6l0.07-0.04
				c0.08-0.05,0.14-0.11,0.18-0.18l1.11-1.46l6.17-8.08H56.09z"/><polygon fill="#eeca8b" points="38.35 36.46 34.86 38.57 32.82 37.02 33.93 33.09"/><polygon fill="#304b58" points="33.95 39.12 31.86 40.39 32.53 38.04"/><path d="M35.22,39.47c-0.03,0.03-0.05,0.06-0.08,0.09c-0.03,0.02-0.06,0.04-0.1,0.06c-0.06,0.03-0.13,0.05-0.21,0.05
				c-0.11,0-0.22-0.04-0.31-0.11l-0.58-0.44l-1.42-1.08l-0.59-0.45c-0.17-0.13-0.23-0.34-0.18-0.52c0.01-0.02,0.01-0.03,0.02-0.04
				c0.01-0.05,0.04-0.1,0.07-0.14c0.17-0.22,0.48-0.26,0.7-0.09l0.27,0.21l2.05,1.55l0.27,0.21C35.35,38.94,35.39,39.25,35.22,39.47
				z"/></svg>