<svg xmlns="http://www.w3.org/2000/svg" viewBox="0 0 110 110"><g data-name="13. Cart"><circle cx="55" cy="59" r="50" fill="#e7efff"/><circle cx="9" cy="14" r="3" fill="#ff4d69"/><circle cx="101" cy="4" r="3" fill="#00c99f"/><circle cx="106" cy="101" r="3" fill="#ffa100"/><circle cx="4" cy="99" r="3" fill="#00c99f"/><path fill="#ffa100" d="M92.55 13.83c-3 2-3.76 4.39-4.62 6.54a1 1 0 01-1.86 0c-.86-2.15-1.64-4.54-4.62-6.54a1 1 0 010-1.66c3-2 3.76-4.39 4.62-6.54a1 1 0 011.86 0c.86 2.15 1.64 4.54 4.62 6.54A1 1 0 0192.55 13.83zM28.55 44.83c-3 2-3.76 4.39-4.62 6.54a1 1 0 01-1.86 0c-.86-2.15-1.64-4.54-4.62-6.54a1 1 0 010-1.66c3-2 3.76-4.39 4.62-6.54a1 1 0 011.86 0c.86 2.15 1.64 4.54 4.62 6.54A1 1 0 0128.55 44.83z"/><circle cx="55" cy="31" r="24" fill="#ffa100"/><circle cx="55" cy="31" r="19" fill="#323fd4"/><path fill="#4e6aff" d="M68,24V38a1,1,0,0,1-.55.89C54.34,45.44,55.33,45,55,45s.62.43-12.45-6.11A1,1,0,0,1,42,38V24a1,1,0,0,1,.55-.89l12-6a1,1,0,0,1,.9,0l12,6A1,1,0,0,1,68,24Z"/><path fill="#fff" d="M49 27a1 1 0 00-1 1v2.7l-2.17-3.25A1 1 0 0044 28v6a1 1 0 002 0V31.3l2.17 3.25A1 1 0 0050 34V28A1 1 0 0049 27zM57 27H53a1 1 0 00-1 1v6a1 1 0 002 0V33h2a1 1 0 000-2H54V29h3a1 1 0 000-2zM65 27H61a1 1 0 000 2h1v5a1 1 0 002 0V29h1a1 1 0 000-2z"/><rect width="84" height="10" x="13" y="62" fill="#4e6aff" rx="2"/><path fill="#323fd4" d="M91,72,86.58,97.76a50,50,0,0,1-63.16,0L19,72Z"/><path fill="#4e6aff" d="M39 102a3 3 0 01-3-3V81a3 3 0 016 0V99A3 3 0 0139 102zM55 102a3 3 0 01-3-3V81a3 3 0 016 0V99A3 3 0 0155 102zM71 102a3 3 0 01-3-3V81a3 3 0 016 0V99A3 3 0 0171 102z"/><path fill="#8fa2ff" d="M51.78 69.42L18.94 93.62A50 50 0 0115 89L48.22 64.58a3 3 0 113.56 4.84zM95 89a50 50 0 01-3.91 4.58L58.22 69.42a3 3 0 013.56-4.84z"/></g></svg>