<svg width="64" height="64" viewBox="0 0 64 64" fill="none" xmlns="http://www.w3.org/2000/svg">
<g clip-path="url(#clip0_602_2)">
<path d="M36 14C37.1046 14 38 13.1046 38 12C38 10.8954 37.1046 10 36 10C34.8954 10 34 10.8954 34 12C34 13.1046 34.8954 14 36 14Z" fill="black"/>
<g filter="url(#filter0_d_602_2)">
<path d="M8 62H48C50.6522 62 53.1957 60.9464 55.0711 59.0711C56.9464 57.1957 58 54.6522 58 52V28C58 26.4087 57.3679 24.8826 56.2426 23.7574C55.1174 22.6321 53.5913 22 52 22H45V11C45 8.61305 44.0518 6.32387 42.364 4.63604C40.6761 2.94821 38.3869 2 36 2C33.6131 2 31.3239 2.94821 29.636 4.63604C27.9482 6.32387 27 8.61305 27 11V22H20C18.4087 22 16.8826 22.6321 15.7574 23.7574C14.6321 24.8826 14 26.4087 14 28V52C14 53.5913 13.3679 55.1174 12.2426 56.2426C11.1174 57.3679 9.5913 58 8 58C7.46957 58 6.96086 58.2107 6.58579 58.5858C6.21071 58.9609 6 59.4696 6 60C6 60.5304 6.21071 61.0391 6.58579 61.4142C6.96086 61.7893 7.46957 62 8 62V62ZM54 52C54 53.5913 53.3679 55.1174 52.2426 56.2426C51.1174 57.3679 49.5913 58 48 58H16C17.2982 56.269 18 54.1637 18 52V36H23V46C23 46.5304 23.2107 47.0391 23.5858 47.4142C23.9609 47.7893 24.4696 48 25 48C25.5304 48 26.0391 47.7893 26.4142 47.4142C26.7893 47.0391 27 46.5304 27 46V36H34V46C34 46.5304 34.2107 47.0391 34.5858 47.4142C34.9609 47.7893 35.4696 48 36 48C36.5304 48 37.0391 47.7893 37.4142 47.4142C37.7893 47.0391 38 46.5304 38 46V36H45V46C45 46.5304 45.2107 47.0391 45.5858 47.4142C45.9609 47.7893 46.4696 48 47 48C47.5304 48 48.0391 47.7893 48.4142 47.4142C48.7893 47.0391 49 46.5304 49 46V36H54V52ZM18 28C18 27.4696 18.2107 26.9609 18.5858 26.5858C18.9609 26.2107 19.4696 26 20 26H29C29.5304 26 30.0391 25.7893 30.4142 25.4142C30.7893 25.0391 31 24.5304 31 24V11C31 9.67392 31.5268 8.40215 32.4645 7.46447C33.4021 6.52678 34.6739 6 36 6C37.3261 6 38.5979 6.52678 39.5355 7.46447C40.4732 8.40215 41 9.67392 41 11V24C41 24.5304 41.2107 25.0391 41.5858 25.4142C41.9609 25.7893 42.4696 26 43 26H52C52.5304 26 53.0391 26.2107 53.4142 26.5858C53.7893 26.9609 54 27.4696 54 28V32H18V28Z" fill="#473D3D"/>
<path d="M44.5 22V22.5H45H52C53.4587 22.5 54.8576 23.0795 55.8891 24.1109C56.9205 25.1424 57.5 26.5413 57.5 28V52C57.5 54.5196 56.4991 56.9359 54.7175 58.7175C52.9359 60.4991 50.5196 61.5 48 61.5H8C7.60217 61.5 7.22064 61.342 6.93934 61.0607C6.65804 60.7794 6.5 60.3978 6.5 60C6.5 59.6022 6.65804 59.2206 6.93934 58.9393C7.22064 58.658 7.60217 58.5 8 58.5C9.72391 58.5 11.3772 57.8152 12.5962 56.5962C13.8152 55.3772 14.5 53.7239 14.5 52V28C14.5 26.5413 15.0795 25.1424 16.1109 24.1109C17.1424 23.0795 18.5413 22.5 20 22.5H27H27.5V22V11C27.5 8.74566 28.3955 6.58365 29.9896 4.98959C31.5837 3.39553 33.7457 2.5 36 2.5C38.2543 2.5 40.4163 3.39553 42.0104 4.98959C43.6045 6.58365 44.5 8.74566 44.5 11V22ZM15.6 57.7L15 58.5H16H48C49.7239 58.5 51.3772 57.8152 52.5962 56.5962C53.8152 55.3772 54.5 53.7239 54.5 52V36V35.5H54H49H48.5V36V46C48.5 46.3978 48.342 46.7794 48.0607 47.0607C47.7794 47.342 47.3978 47.5 47 47.5C46.6022 47.5 46.2206 47.342 45.9393 47.0607C45.658 46.7794 45.5 46.3978 45.5 46V36V35.5H45H38H37.5V36V46C37.5 46.3978 37.342 46.7794 37.0607 47.0607C36.7794 47.342 36.3978 47.5 36 47.5C35.6022 47.5 35.2206 47.342 34.9393 47.0607C34.658 46.7794 34.5 46.3978 34.5 46V36V35.5H34H27H26.5V36V46C26.5 46.3978 26.342 46.7794 26.0607 47.0607C25.7794 47.342 25.3978 47.5 25 47.5C24.6022 47.5 24.2206 47.342 23.9393 47.0607C23.658 46.7794 23.5 46.3978 23.5 46V36V35.5H23H18H17.5V36V52C17.5 54.0555 16.8333 56.0556 15.6 57.7ZM54 32.5H54.5V32V28C54.5 27.337 54.2366 26.7011 53.7678 26.2322C53.2989 25.7634 52.663 25.5 52 25.5H43C42.6022 25.5 42.2206 25.342 41.9393 25.0607C41.658 24.7794 41.5 24.3978 41.5 24V11C41.5 9.54131 40.9205 8.14236 39.8891 7.11091C38.8576 6.07946 37.4587 5.5 36 5.5C34.5413 5.5 33.1424 6.07946 32.1109 7.11091C31.0795 8.14236 30.5 9.54131 30.5 11V24C30.5 24.3978 30.342 24.7794 30.0607 25.0607C29.7794 25.342 29.3978 25.5 29 25.5H20C19.337 25.5 18.7011 25.7634 18.2322 26.2322C17.7634 26.7011 17.5 27.337 17.5 28V32V32.5H18H54Z" stroke="#463A3A"/>
</g>
<path d="M17.5 31L18 25.5H29.5L30.5 24V19.5V14V10.5L31.5 7L33.5 6L35.5 5.5L38 6L39.5 6.5L41 9L41.5 12V18.2623V24.5L42.5 25.5H54L54.5 30.5V32.5H17.5V31Z" fill="#9D5454" stroke="#5D939F"/>
<path d="M18 50H54V54C54 56.2091 52.2091 58 50 58H18V50Z" fill="#E6F878"/>
<path d="M17.9639 55.5838C17.9639 55.6528 17.9685 55.7286 17.9733 55.8075C18.0247 55.6357 18.072 55.4633 18.1215 55.3009C18.242 54.9049 18.4334 54.5256 18.6013 54.1478C18.6023 54.1456 18.531 54.3077 18.4796 54.3591C18.4199 54.4187 18.3102 54.4283 18.2898 54.5202C18.2513 54.6935 18.2324 54.8849 18.1716 55.0538C18.1066 55.2342 17.9639 55.3711 17.9639 55.5838Z" fill="#E6F878"/>
<path d="M17.835 56.6151C18.0604 56.3615 17.9639 55.9011 17.9639 55.5838C17.9639 55.3711 18.1066 55.2342 18.1716 55.0538C18.2324 54.8849 18.2513 54.6935 18.2898 54.5202C18.3102 54.4283 18.4199 54.4187 18.4796 54.3591C18.531 54.3077 18.6023 54.1456 18.6013 54.1478C18.4334 54.5256 18.242 54.9049 18.1215 55.3009C18.0039 55.6872 17.8985 56.13 17.7204 56.4862C17.56 56.8069 17.2803 56.9561 17.1116 57.2597C17.0667 57.3406 16.7678 57.558 16.7678 57.6321C16.7678 57.6542 17.6596 57.6587 17.7705 57.6429C17.9315 57.6199 18.245 57.4975 18.3829 57.4208C18.6693 57.2617 19.1668 57.349 19.3784 57.1021C19.446 57.0232 19.8464 56.9021 19.9621 56.8443C20.2241 56.7133 20.5275 56.6529 20.8001 56.5507" stroke="#E6F878" stroke-linecap="round"/>
</g>
<defs>
<filter id="filter0_d_602_2" x="2" y="2" width="60" height="68" filterUnits="userSpaceOnUse" color-interpolation-filters="sRGB">
<feFlood flood-opacity="0" result="BackgroundImageFix"/>
<feColorMatrix in="SourceAlpha" type="matrix" values="0 0 0 0 0 0 0 0 0 0 0 0 0 0 0 0 0 0 127 0" result="hardAlpha"/>
<feOffset dy="4"/>
<feGaussianBlur stdDeviation="2"/>
<feComposite in2="hardAlpha" operator="out"/>
<feColorMatrix type="matrix" values="0 0 0 0 0 0 0 0 0 0 0 0 0 0 0 0 0 0 0.25 0"/>
<feBlend mode="normal" in2="BackgroundImageFix" result="effect1_dropShadow_602_2"/>
<feBlend mode="normal" in="SourceGraphic" in2="effect1_dropShadow_602_2" result="shape"/>
</filter>
<clipPath id="clip0_602_2">
<rect width="64" height="64" fill="white"/>
</clipPath>
</defs>
</svg>
