<svg xmlns="http://www.w3.org/2000/svg" enable-background="new 0 0 512 512" viewBox="0 0 512 512"><path fill="#ffdc6e" fill-rule="evenodd" d="M467.591,32.042v447.917c0,17.623-14.419,32.041-32.041,32.041H76.45c-17.622,0-32.041-14.418-32.041-32.041
			V32.042C44.409,14.418,58.827,0,76.45,0h359.1C453.172,0,467.591,14.419,467.591,32.042z" clip-rule="evenodd"/><path fill="#ffd54f" fill-rule="evenodd" d="M467.591,32.042v447.917c0,17.623-14.419,32.041-32.041,32.041H256V0h179.55
			C453.172,0,467.591,14.419,467.591,32.042z" clip-rule="evenodd"/><rect width="343.135" height="431.953" x="84.432" y="40.023" fill="#f0f0f0" fill-rule="evenodd" clip-rule="evenodd"/><rect width="171.568" height="431.953" x="256" y="40.023" fill="#e6e6e6" fill-rule="evenodd" clip-rule="evenodd"/><path fill="#3b3539" fill-rule="evenodd" d="M216.787,314.889v12.644c-14.253,0.855-27.836,2.729-41.611,6.607c-12.512-6.095-20.513-18.116-20.513-32.149
			v-101.87c0-55.738,45.599-101.337,101.337-101.337c55.738,0,101.337,45.599,101.337,101.337v101.87
			c0,14.034-8.001,26.054-20.513,32.149c-13.707-3.858-27.398-5.754-41.612-6.607V314.89c-11.635,7.699-25.201,11.81-39.212,11.81
			C241.988,326.7,228.422,322.589,216.787,314.889z" clip-rule="evenodd"/><path fill="#d5c6e4" fill-rule="evenodd" d="M336.68,331.032c-11.726-3.3-24.977-5.52-39.963-6.421v-14.095c-11.485,8.282-25.557,13.174-40.717,13.174
			c-15.16,0-29.232-4.891-40.717-13.174v14.095c-14.986,0.901-28.236,3.121-39.962,6.421
			c-66.401,18.686-83.907,71.999-90.623,116.393c-0.964,6.371,0.724,12.236,4.925,17.121c4.202,4.885,9.749,7.431,16.192,7.431
			h300.372c6.443,0,11.99-2.545,16.192-7.431c4.202-4.885,5.889-10.75,4.925-17.121C420.587,403.031,403.08,349.718,336.68,331.032z
			" clip-rule="evenodd"/><path fill="#bca3d4" fill-rule="evenodd" d="M336.68,331.032c-11.726-3.3-24.977-5.52-39.963-6.421v-14.095c-11.485,8.282-25.557,13.174-40.717,13.174
			c-15.16,0-29.232-4.891-40.717-13.174v14.095c-14.986,0.901-28.236,3.121-39.962,6.421c-5.019,1.412-9.754,3.025-14.231,4.815
			c19.122,36.716,52.797,59.843,94.911,59.843c42.776,0,75.115-23.054,94.971-59.82C346.477,334.072,341.721,332.451,336.68,331.032
			z" clip-rule="evenodd"/><path fill="#f1cbbc" fill-rule="evenodd" d="M256,323.091c-15.16,0-29.232-4.892-40.717-13.174v14.695c-11.841,0.712-22.599,2.247-32.377,4.488
			c14.118,27.106,42.598,44.125,73.095,44.125c31.182,0,58.44-16.992,73.095-44.125c-9.779-2.241-20.537-3.776-32.379-4.488v-14.694
			C285.232,318.199,271.159,323.091,256,323.091z" clip-rule="evenodd"/><path fill="#e6c0b1" fill-rule="evenodd" d="M256,324.595c-15.16,0-29.232-4.891-40.717-13.174v11.117c12.247,7.459,26.273,11.426,40.717,11.426
			c14.445,0,28.469-3.967,40.717-11.426v-11.117C285.232,319.704,271.159,324.595,256,324.595z" clip-rule="evenodd"/><path fill="#f6dccd" fill-rule="evenodd" d="M277.732,163.461c-12.832,27.661-40.846,46.848-73.346,46.848c-6.286,0-12.404-0.718-18.278-2.077v47.073
			c0,23.281,11.536,43.998,29.174,56.717c11.485,8.283,25.558,13.174,40.717,13.174c15.159,0,29.232-4.892,40.717-13.174
			c17.638-12.719,29.175-33.437,29.175-56.718v-48.998C304.528,199.304,287.092,183.637,277.732,163.461z" clip-rule="evenodd"/><path fill="#463d43" fill-rule="evenodd" d="M231.527,285.562c-2.571-2.09-2.96-5.87-0.87-8.441c2.09-2.571,5.87-2.96,8.441-0.87
			c4.795,3.899,10.719,6.029,16.901,6.029c6.183,0,12.106-2.13,16.901-6.028c2.571-2.091,6.35-1.701,8.441,0.87
			c2.091,2.571,1.701,6.35-0.87,8.441c-6.973,5.67-15.474,8.756-24.472,8.756C247.002,294.318,238.5,291.232,231.527,285.562
			L231.527,285.562z M229.97,231.737c5.015,0,9.08,4.065,9.08,9.08c0,5.015-4.065,9.08-9.08,9.08c-5.015,0-9.08-4.065-9.08-9.08
			C220.89,235.802,224.956,231.737,229.97,231.737L229.97,231.737z M282.029,231.737c5.015,0,9.08,4.065,9.08,9.08
			c0,5.015-4.065,9.08-9.08,9.08s-9.08-4.065-9.08-9.08C272.949,235.802,277.014,231.737,282.029,231.737z" clip-rule="evenodd"/><path fill="#595157" fill-rule="evenodd" d="M154.77,195.34c0.072-1.271,0.148-2.537,0.255-3.806c4.413-52.042,48.418-92.75,100.974-92.75
			c55.738,0,101.337,45.599,101.337,101.337v11.464c-11.088,0.644-21.233-0.35-31.914-3.85
			c-20.664-6.773-37.837-21.553-47.69-40.839c-14.013,27.453-42.259,44.917-73.346,44.917
			C186.589,211.813,169.336,205.45,154.77,195.34z" clip-rule="evenodd"/><path fill="#463d43" fill-rule="evenodd" d="M233.992,103.299c55.738,0,101.337,45.599,101.337,101.337v5.67c7.508,1.455,14.457,1.717,22.008,1.279
			v-11.464c0-55.738-45.599-101.337-101.337-101.337c-10.567,0-21.065,1.655-31.116,4.924
			C227.886,103.438,230.924,103.299,233.992,103.299z" clip-rule="evenodd"/></svg>